HIERARCHY
ROOT Hips
{
	OFFSET 0.00000 0.00000 0.00000
	CHANNELS 6 Xposition Yposition Zposition Zrotation Yrotation Xrotation 
	JOINT LHipJoint
	{
		OFFSET 0 0 0
		CHANNELS 3 Zrotation Yrotation Xrotation
		JOINT LeftUpLeg
		{
			OFFSET 1.37590 -1.78394 0.89329
			CHANNELS 3 Zrotation Yrotation Xrotation
			JOINT LeftLeg
			{
				OFFSET 2.47928 -6.81178 0.00000
				CHANNELS 3 Zrotation Yrotation Xrotation
				JOINT LeftFoot
				{
					OFFSET 2.63345 -7.23535 0.00000
					CHANNELS 3 Zrotation Yrotation Xrotation
					JOINT LeftToeBase
					{
						OFFSET 0.23938 -0.65768 2.27012
						CHANNELS 3 Zrotation Yrotation Xrotation
						End Site
						{
							OFFSET 0.00000 -0.00000 1.18363
						}
					}
				}
			}
		}
	}
	JOINT RHipJoint
	{
		OFFSET 0 0 0
		CHANNELS 3 Zrotation Yrotation Xrotation
		JOINT RightUpLeg
		{
			OFFSET -1.33617 -1.78394 0.89329
			CHANNELS 3 Zrotation Yrotation Xrotation
			JOINT RightLeg
			{
				OFFSET -2.56922 -7.05888 0.00000
				CHANNELS 3 Zrotation Yrotation Xrotation
				JOINT RightFoot
				{
					OFFSET -2.56568 -7.04915 0.00000
					CHANNELS 3 Zrotation Yrotation Xrotation
					JOINT RightToeBase
					{
						OFFSET -0.27533 -0.75646 2.18105
						CHANNELS 3 Zrotation Yrotation Xrotation
						End Site
						{
							OFFSET -0.00000 -0.00000 1.15233
						}
					}
				}
			}
		}
	}
	JOINT LowerBack
	{
		OFFSET 0 0 0
		CHANNELS 3 Zrotation Yrotation Xrotation
		JOINT Spine
		{
			OFFSET 0.06190 2.15152 -0.00935
			CHANNELS 3 Zrotation Yrotation Xrotation
			JOINT Spine1
			{
				OFFSET 0.06334 2.15332 0.00872
				CHANNELS 3 Zrotation Yrotation Xrotation
				JOINT Neck
				{
					OFFSET 0 0 0
					CHANNELS 3 Zrotation Yrotation Xrotation
					JOINT Neck1
					{
						OFFSET -0.04202 1.66908 0.23524
						CHANNELS 3 Zrotation Yrotation Xrotation
						JOINT Head
						{
							OFFSET 0.07510 1.69357 -0.24440
							CHANNELS 3 Zrotation Yrotation Xrotation
							End Site
							{
								OFFSET 0.02556 1.71719 -0.11000
							}
						}
					}
				}
				JOINT LeftShoulder
				{
					OFFSET 0 0 0
					CHANNELS 3 Zrotation Yrotation Xrotation
					JOINT LeftArm
					{
						OFFSET 3.67168 1.26306 -0.41342
						CHANNELS 3 Zrotation Yrotation Xrotation
						JOINT LeftForeArm
						{
							OFFSET 4.68510 -0.00000 -0.00000
							CHANNELS 3 Zrotation Yrotation Xrotation
							JOINT LeftHand
							{
								OFFSET 3.39626 -0.00000 -0.00000
								CHANNELS 3 Zrotation Yrotation Xrotation
								JOINT LeftFingerBase
								{
									OFFSET 0 0 0
									CHANNELS 3 Zrotation Yrotation Xrotation
									JOINT LeftHandIndex1
									{
										OFFSET 0.48608 -0.00000 -0.00000
										CHANNELS 3 Zrotation Yrotation Xrotation
										End Site
										{
											OFFSET 0.39189 -0.00000 -0.00000
										}
									}
								}
								JOINT LThumb
								{
									OFFSET 0 0 0
									CHANNELS 3 Zrotation Yrotation Xrotation
									End Site
									{
										OFFSET 0.39787 -0.00000 0.39787
									}
								}
							}
						}
					}
				}
				JOINT RightShoulder
				{
					OFFSET 0 0 0
					CHANNELS 3 Zrotation Yrotation Xrotation
					JOINT RightArm
					{
						OFFSET -3.04136 1.42992 -0.76390
						CHANNELS 3 Zrotation Yrotation Xrotation
						JOINT RightForeArm
						{
							OFFSET -5.55576 -0.00000 -0.00000
							CHANNELS 3 Zrotation Yrotation Xrotation
							JOINT RightHand
							{
								OFFSET -3.32774 -0.00000 -0.00000
								CHANNELS 3 Zrotation Yrotation Xrotation
								JOINT RightFingerBase
								{
									OFFSET 0 0 0
									CHANNELS 3 Zrotation Yrotation Xrotation
									JOINT RightHandIndex1
									{
										OFFSET -0.50763 -0.00000 -0.00000
										CHANNELS 3 Zrotation Yrotation Xrotation
										End Site
										{
											OFFSET -0.40926 -0.00000 -0.00000
										}
									}
								}
								JOINT RThumb
								{
									OFFSET 0 0 0
									CHANNELS 3 Zrotation Yrotation Xrotation
									End Site
									{
										OFFSET -0.41551 -0.00000 0.41551
									}
								}
							}
						}
					}
				}
			}
		}
	}
}
MOTION
Frames: 14
Frame Time: 0.0540541
0.00 0.00 0.00 0 0 0 0 0 0 -21 0 0 0 0 0 0 0 0 0 0 0 0 0 0 21 0 0 0 0 0 0 0 0 0 0 0 0 0 0 0 0 0 0 0 0 0 0 -16 0 0 21 0 0 11 0 0 0 -8 0 0 0 0 0 0 0 0 0 0 0 0 0 0 0 0 0 0 0 0 8 0 0 0 0 0 0 0 0 0 0 0 0 0 0 0 0 0
0.00 0.00 0.00 -110.5600 -83.1523 119.1850 0.0000 0.0000 0.0000 -8.2885 -4.0740 -14.5577 1.9032 8.6615 24.7422 0.4623 3.3954 -14.5378 0.0138 -0.7579 -2.0830 0.0000 0.0000 0.0000 30.4261 5.2644 -8.5899 -0.8664 -5.9352 16.5964 -0.3622 -5.2004 -14.4749 -0.6397 -5.1168 14.2420 5.4657 -0.2903 -4.3747 3.4270 -0.8030 -0.5573 0.4176 -0.4090 1.8591 -4.9981 -1.4960 -16.4068 5.3371 -1.6415 10.2200 2.3515 -0.5797 5.8540 -0.0000 0.0000 0.0000 -95.4515 -2.0732 -1.0247 11.5785 -19.1695 -1.9617 -0.0000 -0.0000 36.8178 14.6337 17.2009 4.4154 -7.1250 0.0000 -0.0000 -12.6931 47.3130 -0.7358 -0.0000 0.0000 0.0000 85.7254 3.4182 11.9388 -12.4310 20.4478 -2.2506 0.0000 0.0000 18.2226 -14.3054 -23.5110 5.8084 7.1250 -0.0000 -0.0000 15.5067 -53.4867 -3.2984
0.00 0.00 0.00 -118.0960 -81.3780 126.2990 0.0000 0.0000 0.0000 -5.5825 -2.7011 -24.4702 4.9440 13.3204 40.5801 0.4676 2.9020 -14.3052 0.1478 -2.4774 -6.8269 0.0000 0.0000 0.0000 32.3061 4.6212 -6.8727 -0.8483 -5.8744 16.4205 -0.4829 -3.1099 -14.6336 -0.6433 -5.1309 14.2823 6.7999 -0.0528 -3.3007 3.7297 -0.4930 -0.2020 0.0115 -0.2541 1.6275 -4.8717 -1.7325 -16.6330 5.9156 -2.1025 11.0617 2.4763 -0.7477 6.1903 -0.0000 0.0000 0.0000 -95.8141 -1.4821 1.9612 12.2841 -20.2293 -2.1995 -0.0000 -0.0000 34.5619 14.5662 17.2534 4.4072 -7.1250 0.0000 -0.0000 -12.7726 47.3561 -0.7543 -0.0000 0.0000 0.0000 85.0169 2.7874 11.1975 -12.0807 19.9255 -2.1297 0.0000 0.0000 18.8493 -14.3436 -23.5123 5.8248 7.1250 -0.0000 -0.0000 15.4695 -53.4949 -3.2934
0.00 0.00 0.00 -144.6130 -79.4201 155.5760 0.0000 0.0000 0.0000 -7.9900 -7.5422 -26.8958 0.7813 5.6433 15.7528 -0.1527 7.0146 -3.8539 0.0143 0.7711 2.1191 0.0000 0.0000 0.0000 24.4537 3.2596 -3.4781 -2.9765 -10.6570 31.1316 -0.1627 -2.2400 -8.7877 -0.0970 2.0083 -5.5285 5.8431 0.4166 -1.8482 3.5966 0.3393 -0.7487 0.4308 0.1223 0.2827 -5.0601 -2.6100 -15.2171 4.5035 -3.0188 8.7009 1.9642 -1.3319 5.2406 -0.0000 0.0000 0.0000 -94.6120 -0.1863 8.9876 12.7678 -20.9460 -2.3696 -0.0000 -0.0000 36.3305 11.2412 16.7254 3.2736 -7.1250 0.0000 -0.0000 -15.6482 46.3991 -0.5536 -0.0000 0.0000 0.0000 81.4716 1.0996 7.5080 -13.1264 21.4721 -2.4994 0.0000 0.0000 18.6753 -14.1273 -23.4687 5.7239 7.1250 -0.0000 -0.0000 15.6623 -53.4132 -3.3044
0.00 0.00 0.00 -155.0610 -80.4116 164.5160 0.0000 0.0000 0.0000 -13.4711 -6.4224 -20.7717 0.7131 5.3966 15.0433 -0.0500 4.8074 -4.6485 0.1233 2.2633 6.2340 0.0000 0.0000 0.0000 20.2998 4.1773 -10.8993 -6.2611 -14.6767 46.0208 0.1960 -7.8806 -3.9025 -0.0122 0.7131 -1.9598 3.8514 0.1058 -1.5056 3.1506 0.0051 -0.4955 1.0731 -0.0251 0.3379 -4.4477 -2.0179 -14.4906 3.4157 -2.2449 8.7962 1.5966 -1.0155 5.0934 0.0000 -0.0000 0.0000 -92.6708 -1.9326 13.7741 15.0036 -24.1511 -3.2274 -0.0000 -0.0000 29.0003 7.8020 14.9028 2.0182 -7.1250 0.0000 -0.0000 -18.1033 44.2306 0.3559 0.0000 -0.0000 0.0000 81.0202 0.9243 9.6725 -15.1219 24.3157 -3.2760 0.0000 0.0000 17.8781 -14.1535 -22.5588 5.5257 7.1250 -0.0000 -0.0000 15.2096 -52.5306 -2.8728
0.00 0.00 0.00 -35.6209 -79.9619 41.7070 0.0000 0.0000 0.0000 -8.5971 -7.0682 -5.0218 4.4409 12.7250 38.3477 -0.3338 -11.0132 -0.4480 0.6927 -5.3207 -14.8255 0.0000 0.0000 0.0000 23.7878 6.2310 -27.9876 -1.7497 -8.3240 23.7027 0.3593 -10.8481 -6.6795 -0.8282 -5.8060 16.2225 1.8616 0.7123 0.6199 1.6705 0.9708 -0.6264 0.6533 0.4720 -0.9868 -7.3003 -6.3487 -14.2549 6.6258 -8.0328 10.5439 2.5023 -3.7116 6.0912 -0.0000 -0.0000 0.0000 -91.3943 1.7141 6.1543 16.4559 -26.1349 -3.8446 -0.0000 -0.0000 28.5696 14.8169 21.4657 5.5291 -7.1250 0.0000 -0.0000 -14.0861 51.5711 -2.3181 -0.0000 -0.0000 0.0000 51.9653 12.3590 -13.0596 -18.7021 29.0468 -4.8854 0.0000 0.0000 31.6105 -32.9881 -26.3775 16.0870 7.1250 -0.0000 -0.0000 -3.6523 -60.5358 1.3845
0.00 0.00 0.00 -74.2853 -77.2094 78.6704 0.0000 0.0000 0.0000 1.3370 -8.9757 -28.2931 2.3699 9.5973 27.6824 0.0745 0.7437 -5.4851 0.4353 -4.2337 -11.7352 0.0000 0.0000 0.0000 37.4006 -0.8273 -2.0907 -0.7912 -5.6780 15.8530 -0.4868 2.9182 -12.5020 -0.8133 -5.7547 16.0744 9.8872 5.6661 -2.2088 -0.1193 7.4182 -3.1929 -5.4238 3.5270 -0.8422 -11.6053 -9.3365 -11.7618 6.9756 -11.7363 13.2190 2.8955 -5.7183 7.0759 -0.0000 -0.0000 0.0000 -94.7900 7.2599 -19.1883 9.7914 -16.4127 -1.4154 -0.0000 -0.0000 43.3863 10.3497 18.2362 3.2709 -7.1250 0.0000 -0.0000 -17.0103 47.7454 -1.1846 -0.0000 -0.0000 0.0000 90.4434 60.0026 102.4746 -57.3208 55.5527 -32.1216 0.0000 0.0000 20.4458 -24.8695 -13.9572 6.3794 7.1250 -0.0000 -0.0000 2.4046 -45.2857 -0.0170
0.00 0.00 0.00 -73.8192 -77.5602 78.6215 0.0000 0.0000 0.0000 -0.2833 -10.6107 -26.7890 1.1165 6.7126 18.8667 -0.0213 3.8757 -4.4829 0.2376 -3.1370 -8.6604 0.0000 0.0000 0.0000 36.3887 -1.3412 -0.2059 -1.2188 -7.0027 19.7234 -0.5562 4.0720 -13.2909 -0.2894 -3.4598 9.5616 9.7505 5.7200 -2.8256 -0.2917 7.4316 -3.6047 -5.4873 3.5125 -0.9206 -11.6946 -9.6130 -11.4730 7.1649 -12.1609 13.0851 2.9291 -5.9197 7.0417 0.0000 0.0000 0.0000 -95.0801 6.8019 -12.9442 10.8979 -18.1315 -1.7440 -0.0000 -0.0000 38.5451 10.5881 17.5347 3.2234 -7.1250 0.0000 -0.0000 -16.5297 47.1000 -0.8797 0.0000 0.0000 0.0000 91.0052 60.3890 109.1628 -80.7632 59.6751 -52.0094 0.0000 0.0000 18.9705 -22.1282 -11.0173 4.4435 7.1250 -0.0000 -0.0000 4.4572 -41.8075 0.3518
0.00 0.00 0.00 -51.7108 -82.1460 57.5391 0.0000 0.0000 0.0000 -10.8372 -3.3972 -4.0387 4.7015 13.0395 39.5165 -0.0315 -3.2874 0.1933 1.0802 -6.6062 -18.5538 0.0000 0.0000 0.0000 25.2912 9.0402 -23.8096 -1.2224 -7.0126 19.7526 0.2888 -9.5134 -4.3988 -1.1183 -6.7177 18.8817 2.8047 -0.3617 -1.4572 1.9425 -0.5003 -3.7003 0.4340 -0.3307 -2.9923 -10.3621 -9.1472 -12.4730 10.9122 -12.6623 15.1337 3.8212 -5.7811 8.1065 -0.0000 0.0000 0.0000 -90.9797 6.8796 -10.5268 12.1894 -20.0881 -2.1669 -0.0000 -0.0000 36.5954 11.1317 20.0022 3.8505 -7.1250 0.0000 -0.0000 -16.9896 49.5598 -1.9607 -0.0000 0.0000 0.0000 42.5942 44.5831 57.4448 -63.4500 57.1613 -37.2261 0.0000 0.0000 26.6505 -24.0365 -21.1672 9.1486 7.1250 -0.0000 -0.0000 4.8026 -52.8928 -0.9344
0.00 0.00 0.00 -74.4614 -81.2986 79.7581 0.0000 0.0000 0.0000 -6.8372 -4.5512 -13.7561 7.8268 15.9904 51.9366 -0.0050 -2.9517 3.9169 0.8398 -5.8457 -16.3372 0.0000 0.0000 0.0000 30.0366 8.4842 -17.4871 -1.1520 -6.8147 19.1677 0.0688 -5.9214 -6.0689 -1.3817 -7.4380 21.0195 5.7813 0.5196 -0.9150 2.6966 0.7199 -3.6717 -0.4647 0.1881 -3.2408 -10.4942 -9.7538 -11.6842 12.8044 -13.9228 14.5315 4.3200 -6.2891 8.0733 -0.0000 0.0000 0.0000 -93.3935 5.4257 -0.2814 14.5147 -23.4657 -3.0300 -0.0000 -0.0000 31.1298 11.6829 19.0414 3.8594 -7.1250 0.0000 -0.0000 -16.0878 48.7116 -1.5086 -0.0000 0.0000 0.0000 55.0706 51.8892 81.6332 -84.1086 59.8684 -54.9002 0.0000 0.0000 23.9431 -22.0203 -13.5170 5.4002 7.1250 -0.0000 -0.0000 4.9609 -44.4600 0.0663
0.00 0.00 0.00 -87.9082 -78.8160 94.2660 0.0000 0.0000 0.0000 1.4562 -11.5444 -30.8911 2.3333 9.5284 27.4625 0.1036 1.2387 -6.6682 0.6234 -5.0525 -14.0584 0.0000 0.0000 0.0000 35.2247 4.4556 -1.0903 -0.6930 -5.3217 14.8284 -0.5105 -5.1833 -16.3884 -0.2166 -2.9962 8.2681 7.9567 1.9911 -0.9174 3.3508 2.6562 -3.1950 -1.0104 1.1178 -2.5947 -11.4280 -10.7874 -11.2554 16.9604 -15.9107 12.7839 5.5635 -7.0542 8.1497 0.0000 -0.0000 0.0000 -94.4830 6.2936 22.6872 29.0410 -40.0570 -10.7871 -0.0000 -0.0000 17.4310 13.6480 15.1251 3.6252 -7.1250 0.0000 -0.0000 -12.9603 45.1198 -0.0390 0.0000 -0.0000 0.0000 64.8735 41.6800 47.8108 -57.8330 55.7043 -32.5444 0.0000 0.0000 4.8653 -28.8341 -20.1709 10.7488 7.1250 -0.0000 -0.0000 -0.3967 -52.7297 0.0754
0.00 0.00 0.00 -103.3880 -83.8704 108.1480 0.0000 0.0000 0.0000 -8.9267 -7.5179 -25.4241 2.0030 8.8723 25.3966 0.0783 0.7287 -5.6032 0.0171 -0.8435 -2.3184 0.0000 0.0000 0.0000 25.2257 2.4180 -11.3127 -7.8268 -15.9904 51.9366 0.4807 -12.2790 -6.2412 -0.0013 0.2305 -0.6332 1.4202 1.8795 -0.4475 1.9902 2.5163 -2.3491 1.2098 1.2344 -2.1867 -12.5175 -10.9444 -11.3791 21.6085 -15.8554 7.1502 7.2674 -7.0149 6.9373 0.0000 0.0000 0.0000 -91.6542 2.4749 -17.6101 8.7935 -14.8307 -1.1467 -0.0000 -0.0000 52.3110 9.7040 20.3971 3.4108 -7.1250 0.0000 -0.0000 -18.4952 49.7231 -2.2213 0.0000 0.0000 0.0000 68.3689 13.3594 47.3752 -22.1377 33.1323 -6.6610 0.0000 -0.0000 -16.6034 -12.4712 -39.8862 8.0722 7.1250 -0.0000 -0.0000 32.1880 -67.9500 -18.4822
0.00 0.00 0.00 -66.7511 -87.4019 70.5780 0.0000 0.0000 0.0000 -17.5028 -2.7582 -8.5298 1.0036 6.3748 17.8760 0.3542 -2.3793 -10.6715 0.0026 -0.3283 -0.9019 0.0000 0.0000 0.0000 18.9359 1.2845 -31.4471 -6.9650 -15.3024 48.7419 0.6098 -14.1148 -8.9885 -0.1221 -2.2522 6.2032 -0.5240 0.1268 0.6959 1.7594 0.1726 -2.8254 2.0988 0.1112 -3.3006 -11.0419 -10.5619 -11.1132 25.3655 -16.0775 5.3822 8.2692 -7.0842 6.6830 0.0000 -0.0000 0.0000 -88.3782 2.0914 -7.0752 11.4424 -18.9632 -1.9172 -0.0000 -0.0000 36.2977 14.3403 19.6870 4.9223 -7.1250 0.0000 -0.0000 -13.8359 49.7389 -1.6445 0.0000 -0.0000 0.0000 33.2295 30.1085 31.1288 -65.4241 57.5901 -38.8889 0.0000 -0.0000 -22.9925 -18.9325 -56.0939 15.8907 7.1250 -0.0000 -0.0000 79.8547 -78.8816 -68.5172
0.00 0.00 0.00 -28.0312 -86.5724 32.8390 0.0000 0.0000 0.0000 -19.0444 -2.3897 -3.8564 0.6999 5.3474 14.9022 0.4744 -2.8570 -12.3438 0.0146 -0.7792 -2.1416 0.0000 0.0000 0.0000 16.7854 1.5118 -33.7674 -3.5729 -11.5693 34.2248 0.5471 -13.7463 -9.9722 -0.1320 -2.3419 6.4515 0.3599 -0.4945 0.6790 2.0284 -0.6341 -3.3499 1.9147 -0.3140 -3.8078 -10.2602 -10.8181 -11.0998 26.2197 -16.9512 5.9625 8.2976 -7.4295 7.0639 0.0000 -0.0000 0.0000 -88.2964 0.7706 0.3093 13.8048 -22.4549 -2.7531 -0.0000 -0.0000 29.4387 15.8467 19.8736 5.5117 -7.1250 0.0000 -0.0000 -12.4677 50.1583 -1.6071 0.0000 -0.0000 0.0000 14.7571 42.2963 -7.0288 -72.0469 58.7464 -44.5176 0.0000 -0.0000 -18.0842 -33.5090 -53.0959 27.8991 7.1250 -0.0000 -0.0000 68.1609 -84.7054 -63.1443
